<?xml version="1.0" encoding="UTF-8"?>
<svg id="logosandtypes_com" data-name="logosandtypes com" xmlns="http://www.w3.org/2000/svg" viewBox="0 0 150 150">
  <defs>
    <style>
      .cls-1 {
        fill: none;
      }
    </style>
  </defs>
  <path class="cls-1" d="M0,0H150V150H0V0Z"/>
  <path d="M74.62,93.64c0-10.35,8.39-18.75,18.75-18.75s18.75,8.39,18.75,18.75-8.39,18.75-18.75,18.75-18.75-8.39-18.75-18.75"/>
  <path d="M37.93,93.64c0-10.35,8.39-18.75,18.75-18.75s18.75,8.39,18.75,18.75-8.39,18.75-18.75,18.75-18.75-8.39-18.75-18.75"/>
  <path d="M1.25,93.64c0-10.35,8.39-18.75,18.75-18.75s18.75,8.39,18.75,18.75-8.39,18.75-18.75,18.75S1.25,103.99,1.25,93.64"/>
  <path d="M74.62,56.96c0-10.35,8.39-18.75,18.75-18.75s18.75,8.39,18.75,18.75-8.39,18.75-18.75,18.75-18.75-8.39-18.75-18.75"/>
  <path d="M37.93,56.96c0-10.35,8.39-18.75,18.75-18.75s18.75,8.39,18.75,18.75-8.39,18.75-18.75,18.75-18.75-8.39-18.75-18.75"/>
  <path d="M111.26,56.96c0-10.35,8.39-18.75,18.75-18.75s18.75,8.39,18.75,18.75-8.39,18.75-18.75,18.75-18.75-8.39-18.75-18.75"/>
</svg>